<svg xmlns="http://www.w3.org/2000/svg" viewBox="0 0 32 32" fill="none">
  <circle cx="16" cy="16" r="16" fill="#96BF48"/>
  <path d="M21.8 8.4c0 0-.2-.1-.5-.1s-.5 0-.8.1c-.1-.5-.4-.9-.7-1.2-.4-.5-1-.7-1.6-.7h-.1c-.2-.3-.5-.5-.8-.5-.6 0-1 .5-1.3 1.2-.2.5-.4 1.3-.5 2.1l-3 .9-.4 9.4 7.7 1.3 2.8-12.5zm-4.2-.9c-.2.5-.3 1.2-.4 1.9l-1.3.4c.3-1.2.8-2 1.3-2.3.1 0 .2.1.4 0zm-1.3-.5c.1 0 .2.1.3.2-.7.3-1.4 1.4-1.7 2.9l-1 .3c.3-1.6 1.2-3.4 2.4-3.4zm1.9 1.2c.1-.8.3-1.4.5-1.8.3-.5.6-.7.8-.8.1.4.1 1 .1 1.7l-1.4.9z" fill="#fff"/>
</svg>
