<svg xmlns="http://www.w3.org/2000/svg" viewBox="0 0 500 280" fill="none">
  <!-- Simplified world map outlines -->
  <!-- North America -->
  <path d="M60 60 L140 50 L160 70 L150 100 L120 110 L90 130 L70 120 L50 90 Z" stroke="#fff" stroke-width="1.5" fill="none" opacity="0.6"/>
  <!-- South America -->
  <path d="M110 140 L150 135 L165 155 L155 200 L130 215 L110 195 L105 160 Z" stroke="#fff" stroke-width="1.5" fill="none" opacity="0.6"/>
  <!-- Europe -->
  <path d="M230 55 L275 50 L285 65 L270 80 L245 85 L230 75 Z" stroke="#fff" stroke-width="1.5" fill="none" opacity="0.6"/>
  <!-- Africa -->
  <path d="M240 95 L280 90 L295 115 L285 165 L260 175 L240 155 L235 120 Z" stroke="#fff" stroke-width="1.5" fill="none" opacity="0.6"/>
  <!-- Asia -->
  <path d="M290 45 L400 40 L420 70 L405 100 L370 110 L330 105 L300 90 L285 65 Z" stroke="#fff" stroke-width="1.5" fill="none" opacity="0.6"/>
  <!-- Australia -->
  <path d="M375 155 L430 150 L445 175 L430 195 L395 195 L375 175 Z" stroke="#fff" stroke-width="1.5" fill="none" opacity="0.6"/>
  <!-- Connection dots -->
  <circle cx="100" cy="85" r="3" fill="#EC5A26" opacity="0.8"/>
  <circle cx="255" cy="65" r="3" fill="#EC5A26" opacity="0.8"/>
  <circle cx="345" cy="75" r="3" fill="#EC5A26" opacity="0.8"/>
  <circle cx="405" cy="170" r="3" fill="#EC5A26" opacity="0.8"/>
  <!-- Connection lines -->
  <line x1="100" y1="85" x2="255" y2="65" stroke="#EC5A26" stroke-width="1" opacity="0.3" stroke-dasharray="4 4"/>
  <line x1="255" y1="65" x2="345" y2="75" stroke="#EC5A26" stroke-width="1" opacity="0.3" stroke-dasharray="4 4"/>
</svg>
