<svg width="163" height="50" viewBox="0 0 163 50" fill="none" xmlns="http://www.w3.org/2000/svg">
<g clip-path="url(#clip0_41_80)">
<path d="M46.8083 23.4C46.8103 28.0305 45.439 32.5576 42.8679 36.4086C40.2967 40.2597 36.6413 43.2618 32.3638 45.0351C28.0864 46.8085 23.3791 47.2736 18.8374 46.3714C14.2956 45.4693 10.1234 43.2405 6.84846 39.9669C3.57351 36.6934 1.34293 32.5221 0.438841 27.9807C-0.46525 23.4394 -0.00223863 18.7319 1.76931 14.4537C3.54087 10.1755 6.54138 6.51876 10.3914 3.94599C14.2413 1.37323 18.7678 4.22468e-07 23.3983 0C24.5583 0 26.8183 0.25 26.8183 0.25L45.8183 16.77C46.324 18.9502 46.6551 21.1672 46.8083 23.4Z" fill="white"/>
<path d="M43.8074 17.4702L44.1574 17.7602L44.3274 17.8902C44.3274 18.1002 44.1974 18.0602 44.0774 18.0702C43.9574 18.0802 43.3674 17.9802 43.3674 17.9802H43.1574C43.1574 17.9802 41.6474 17.9102 40.9074 17.8602C40.5474 17.8602 40.1874 17.8602 39.8274 17.8102C39.1774 17.7502 38.5174 17.6902 37.8274 17.6102C36.9051 17.4879 35.9903 17.3143 35.0874 17.0902C34.8474 17.0202 34.6174 16.9702 34.3774 16.8902C33.3267 16.5757 32.319 16.1323 31.3774 15.5702C30.3877 14.9551 29.4918 14.2007 28.7174 13.3302C27.9787 12.4672 27.3597 11.5086 26.8774 10.4802C26.8274 10.3602 26.8074 10.2002 26.6874 10.1202C26.5074 9.61016 26.3074 9.12016 26.1474 8.60016C25.8053 7.48666 25.5807 6.34041 25.4774 5.18016C25.3889 4.48368 25.3455 3.78222 25.3474 3.08016C25.3425 3.02359 25.3425 2.96672 25.3474 2.91016C25.4274 3.42016 25.4774 3.91016 25.5674 4.42016C25.9147 6.16527 26.7585 7.77299 27.9974 9.05016C28.9105 9.96134 29.9555 10.7299 31.0974 11.3302C32.3646 11.9605 33.6667 12.5181 34.9974 13.0002C36.5274 13.6002 38.0774 14.1802 39.5574 14.8802C39.9574 15.0702 40.3374 15.2802 40.7474 15.4402C40.7474 15.5002 40.8274 15.5002 40.8874 15.5202C41.7308 15.9437 42.5284 16.453 43.2674 17.0402C43.4211 17.2137 43.6038 17.3592 43.8074 17.4702Z" fill="#B54E24"/>
<path d="M41.9302 34.9998C41.4143 35.8564 40.829 36.6691 40.1802 37.4298C37.2319 40.9982 33.2257 43.5371 28.7402 44.6798C27.4277 45.0056 26.0893 45.2164 24.7402 45.3098C19.4083 45.6426 14.1393 44.0096 9.93016 40.7198C8.16643 39.3517 6.62488 37.7191 5.36016 35.8798C5.29016 35.7898 5.24016 35.6798 5.17016 35.5898C5.21197 35.524 5.23418 35.4477 5.23418 35.3698C5.23418 35.2919 5.21197 35.2156 5.17016 35.1498C4.74723 34.5067 4.36321 33.8388 4.02016 33.1498C3.74016 32.6098 3.51016 32.0298 3.27016 31.4598C3.22016 31.3398 3.18016 31.1898 3.14016 31.0698C3.10016 30.9498 3.14016 30.8698 3.25016 30.8598C3.28344 30.8875 3.30489 30.9268 3.31016 30.9698C3.65338 31.8632 4.05078 32.7348 4.50016 33.5798C4.9339 34.4131 5.41468 35.2211 5.94016 35.9998C6.61 36.9183 7.34524 37.7872 8.14016 38.5998C8.54016 39.0298 8.99016 39.3998 9.43016 39.7898C10.0391 40.319 10.6804 40.81 11.3502 41.2598C12.3156 41.9196 13.336 42.4951 14.4002 42.9798C15.5876 43.5307 16.8227 43.9725 18.0902 44.2998C18.7817 44.4792 19.4828 44.6194 20.1902 44.7198L21.2902 44.8498C21.7402 44.8498 22.2002 44.9398 22.6502 44.9498C23.8165 44.9899 24.9841 44.9297 26.1402 44.7698C26.7302 44.6898 27.3102 44.6098 27.8902 44.4798C28.9955 44.2225 30.0814 43.8884 31.1402 43.4798C32.2465 43.0416 33.3165 42.5166 34.3402 41.9098C35.0202 41.4898 35.6702 41.0398 36.3402 40.5598C37.0102 40.0798 37.6702 39.4598 38.3402 38.8598C38.6202 38.5998 38.8802 38.3098 39.1302 38.0298C39.5402 37.5898 39.9302 37.1198 40.3002 36.6398C40.8631 35.9377 41.3745 35.1958 41.8302 34.4198C42.266 33.6997 42.6535 32.9513 42.9902 32.1798C43.2702 31.5098 43.5402 30.8498 43.7702 30.1798C44.1261 29.0762 44.3936 27.9459 44.5702 26.7998C44.7402 26.7998 44.7602 26.9498 44.7402 27.0798C44.7202 27.2098 44.7402 27.2698 44.7402 27.3598C44.5697 28.3415 44.3325 29.3104 44.0302 30.2598C43.7537 31.0791 43.4196 31.8778 43.0302 32.6498C42.8202 33.1198 42.5902 33.5698 42.3402 34.0098C42.1638 34.2645 42.0193 34.5399 41.9102 34.8298C41.8602 34.8398 41.8202 34.9198 41.9302 34.9998Z" fill="#E16C2E"/>
<path d="M3.20878 30.8199C3.05878 30.8199 3.07878 30.9199 3.09878 31.0299C3.13491 31.1635 3.18173 31.2939 3.23878 31.4199C3.47878 31.9799 3.69878 32.5599 3.97878 33.1099C4.25878 33.6599 4.71878 34.4799 5.12878 35.1099C5.16752 35.1749 5.18798 35.2492 5.18798 35.3249C5.18798 35.4006 5.16752 35.4749 5.12878 35.5399C4.84221 35.1634 4.5848 34.7656 4.35878 34.3499C2.65364 31.3747 1.67442 28.0393 1.50066 24.6146C1.32691 21.1898 1.96352 17.7724 3.35878 14.6399C4.81768 11.3165 7.08223 8.40926 9.9475 6.18129C12.8128 3.95333 16.1883 2.47495 19.7688 1.87991C21.3588 1.62676 22.9711 1.54296 24.5788 1.62991C24.8388 1.62991 25.0888 1.68991 25.3388 1.67991C25.3883 1.82582 25.3883 1.984 25.3388 2.12991C25.2865 2.14492 25.2311 2.14492 25.1788 2.12991C24.6988 2.12991 24.2388 2.04991 23.7588 2.04991C22.8772 2.03998 21.9958 2.08004 21.1188 2.16991C20.5688 2.21991 20.0288 2.28991 19.4788 2.38991C18.2467 2.62335 17.036 2.95781 15.8588 3.38991C14.461 3.91898 13.1207 4.5891 11.8588 5.38991C11.1045 5.87441 10.386 6.41246 9.70878 6.99991C9.20878 7.42991 8.65878 7.81991 8.18878 8.30991C7.71878 8.79991 7.42878 9.18991 7.05878 9.61991C6.58814 10.1691 6.1475 10.7432 5.73878 11.3399C5.01222 12.3764 4.38288 13.4777 3.85878 14.6299C3.35301 15.7424 2.94481 16.8968 2.63878 18.0799C2.44281 18.8481 2.28594 19.6258 2.16878 20.4099C2.07165 21.1898 2.0149 21.9742 1.99878 22.7599C1.94557 23.9061 2.0025 25.0547 2.16878 26.1899C2.27336 27.011 2.42359 27.8256 2.61878 28.6299C2.73878 29.3399 2.99878 30.0699 3.20878 30.8199Z" fill="#EF8C56"/>
<path d="M25.3789 2.10989C25.4183 1.95908 25.4183 1.80069 25.3789 1.64989C25.3789 1.43989 25.4389 1.42989 25.5689 1.54989L27.0989 2.87989L29.1689 4.63989C29.5689 4.97989 29.9689 5.33989 30.3689 5.68989L31.5089 6.68989L32.6189 7.68989C33.0389 8.05989 33.4689 8.41989 33.8989 8.77989C34.3289 9.13989 34.6389 9.44989 35.0189 9.77989L36.2389 10.8299L37.3689 11.8299C37.9289 12.3099 38.5089 12.8299 39.0689 13.2799L40.1989 14.2799L41.4189 15.3299L42.5289 16.3299L43.7289 17.3299C43.8089 17.3899 44.1689 17.7699 44.3689 17.9799L43.3689 17.1699C42.6248 16.5849 41.8242 16.0757 40.9789 15.6499C40.9789 15.6499 40.8689 15.6499 40.8489 15.5699C40.8489 15.3199 40.5889 15.2099 40.4289 15.0599C40.0889 14.7599 39.7389 14.4799 39.3789 14.1799L38.3789 13.3299C38.0189 13.0199 37.6589 12.7299 37.2989 12.4399L36.2989 11.5499L35.1489 10.5499L34.1489 9.70989C33.6889 9.30989 33.2089 8.92989 32.7389 8.51989C32.2689 8.10989 32.0289 7.92989 31.7389 7.62989C31.4489 7.32989 30.7389 6.79989 30.2589 6.38989C29.7789 5.97989 29.2589 5.54989 28.8089 5.14989C28.3589 4.74989 27.8589 4.37989 27.3789 3.97989L25.8889 2.67989C25.7964 2.59337 25.6755 2.54359 25.5489 2.53989C25.5144 2.38877 25.457 2.24378 25.3789 2.10989Z" fill="#DDDDDC"/>
<path d="M41.9277 35.0002C41.8177 34.9402 41.8577 34.8602 41.9277 34.7802C42.0287 34.4898 42.1737 34.2166 42.3577 33.9702C42.6077 33.5302 42.8377 33.0602 43.0477 32.6102C43.4234 31.8285 43.7572 31.0274 44.0477 30.2102C44.3503 29.265 44.5842 28.2991 44.7477 27.3202C44.7692 27.2278 44.7859 27.1343 44.7977 27.0402C44.7977 26.8902 44.7977 26.7902 44.6277 26.7602C44.694 26.3762 44.7408 25.989 44.7677 25.6002C44.7677 25.0702 44.8677 24.5202 44.8677 23.9902C44.8677 23.4602 44.8677 22.8302 44.8677 22.2402C44.8677 21.6502 44.7877 21.3002 44.7377 20.8202C44.6252 19.9161 44.4514 19.0207 44.2177 18.1402C44.3377 18.1402 44.4977 18.1402 44.4677 17.9502C44.6312 18.2498 44.7652 18.5646 44.8677 18.8902C45.2934 20.8126 45.4516 22.7845 45.3377 24.7502C45.285 25.8139 45.1411 26.8711 44.9077 27.9102C44.8377 28.2002 44.7377 28.4802 44.6877 28.7602C44.4003 30.0909 43.9573 31.3831 43.3677 32.6102C42.9577 33.3812 42.5001 34.126 41.9977 34.8402C41.9814 34.8964 41.9579 34.9501 41.9277 35.0002Z" fill="#EF8C56"/>
<path d="M25.4163 2.86002C25.339 2.83063 25.2584 2.81049 25.1763 2.80002C24.6363 2.80002 24.0963 2.72002 23.5563 2.73002C23.1763 2.73002 22.8063 2.73002 22.4363 2.73002C22.0663 2.73002 21.5963 2.80002 21.1663 2.84002C20.7363 2.88002 20.1663 2.96002 19.6863 3.04002C19.1334 3.12931 18.5859 3.24949 18.0463 3.40002C17.2273 3.61692 16.4225 3.8841 15.6363 4.20002C14.6313 4.60252 13.6613 5.0875 12.7363 5.65002C12.0661 6.05546 11.4246 6.50653 10.8163 7.00002C10.3071 7.36399 9.82267 7.76154 9.36634 8.19002C9.13634 8.43002 8.85634 8.61002 8.62634 8.86002C8.12634 9.46002 7.57634 10.02 7.08634 10.63C6.4575 11.4342 5.88289 12.2794 5.36634 13.16C4.96062 13.8631 4.5999 14.5913 4.28634 15.34C4.0402 15.9052 3.82324 16.4826 3.63634 17.07C3.3054 18.0889 3.05464 19.1321 2.88634 20.19C2.80634 20.75 2.75634 21.32 2.68634 21.89C2.62644 22.8124 2.62644 23.7377 2.68634 24.66C2.72809 25.4624 2.82499 26.2609 2.97634 27.05C3.15491 28.0178 3.39541 28.9731 3.69634 29.91C4.02525 30.914 4.43319 31.8904 4.91634 32.83C5.48371 33.9619 6.15315 35.0397 6.91634 36.05C7.31194 36.576 7.7359 37.0801 8.18634 37.56C8.41634 37.79 8.60634 38.04 8.84634 38.25C9.99463 39.3558 11.2586 40.3347 12.6163 41.17C13.1376 41.4937 13.675 41.7908 14.2263 42.06C16.1482 43.0068 18.201 43.6607 20.3163 44C20.7863 44.08 21.2563 44.11 21.7363 44.16C22.5763 44.25 23.4163 44.16 24.2563 44.16C24.6915 44.1569 25.1259 44.1235 25.5563 44.06C25.8963 44.06 26.2463 43.98 26.5563 43.92C27.2311 43.8264 27.8992 43.6895 28.5563 43.51C29.6816 43.2055 30.7815 42.8144 31.8463 42.34C33.0267 41.798 34.1548 41.1486 35.2163 40.4C35.7522 40.0377 36.2633 39.6402 36.7463 39.21C37.1863 38.81 37.6563 38.43 38.0663 38.01C38.4763 37.59 38.9363 37.01 39.3463 36.55C39.8849 35.918 40.3794 35.2498 40.8263 34.55C41.4344 33.5967 41.9596 32.593 42.3963 31.55C42.6263 30.99 42.8663 30.43 43.0363 29.86C43.3676 28.8419 43.615 27.7984 43.7763 26.74C43.8563 26.17 43.9163 25.58 43.9763 25.01C44.0513 24.0882 44.0513 23.1618 43.9763 22.24C43.9134 20.861 43.6851 19.4946 43.2963 18.17C43.291 18.1268 43.291 18.0832 43.2963 18.04C43.5352 18.028 43.7745 18.0516 44.0063 18.11C44.2305 18.9927 44.4042 19.8875 44.5263 20.79C44.5263 21.26 44.6163 21.73 44.6563 22.21C44.6963 22.69 44.6563 23.38 44.6563 23.96C44.6563 24.54 44.5963 25.04 44.5463 25.57C44.5463 25.95 44.4863 26.34 44.4163 26.73C44.2339 27.8717 43.9665 28.9981 43.6163 30.1C43.3863 30.78 43.1263 31.46 42.8463 32.1C42.5038 32.8687 42.1165 33.6167 41.6863 34.34C41.2262 35.1187 40.7116 35.8639 40.1463 36.57C39.7763 37.05 39.3963 37.5 38.9763 37.95C38.732 38.241 38.4716 38.5181 38.1963 38.78C37.5598 39.3812 36.8922 39.9487 36.1963 40.48C35.5531 40.9637 34.8855 41.4143 34.1963 41.83C33.1727 42.4369 32.1027 42.9618 30.9963 43.4C29.9412 43.819 28.8545 44.1534 27.7463 44.4C27.1763 44.53 26.5863 44.61 25.9963 44.69C24.8397 44.8438 23.6728 44.9073 22.5063 44.88C22.0563 44.88 21.6063 44.82 21.1463 44.77L20.0463 44.64C19.3415 44.5487 18.6434 44.4118 17.9563 44.23C16.6927 43.8905 15.4586 43.4491 14.2663 42.91C13.207 42.4158 12.1874 41.8408 11.2163 41.19C10.5464 40.7368 9.90521 40.2425 9.29634 39.71C8.85634 39.32 8.39634 38.95 7.99634 38.52C7.26853 37.7057 6.60014 36.8401 5.99634 35.93C5.44866 35.1574 4.94776 34.3526 4.49634 33.52C4.05245 32.6738 3.65844 31.8023 3.31634 30.91C3.30273 30.868 3.27864 30.8301 3.24634 30.8C3.01634 30.06 2.77634 29.33 2.59634 28.58C2.40508 27.7748 2.25488 26.9605 2.14634 26.14C1.87292 24.2218 1.88978 22.2733 2.19634 20.36C2.29397 19.5664 2.43417 18.7786 2.61634 18C2.93478 16.8194 3.34606 15.6658 3.84634 14.55C4.36822 13.3967 4.99767 12.2952 5.72634 11.26C6.13355 10.6718 6.57428 10.1076 7.04634 9.57002C7.42634 9.13002 7.77634 8.67002 8.17634 8.26002C8.57634 7.85002 9.17634 7.38002 9.69634 6.94002C10.3919 6.34914 11.1307 5.81098 11.9063 5.33002C13.1657 4.52471 14.5065 3.85434 15.9063 3.33002C17.0861 2.89536 18.3004 2.56084 19.5363 2.33002C20.0763 2.22002 20.6263 2.17002 21.1763 2.10002C22.0408 2.02262 22.9085 1.98924 23.7763 2.00002C24.2563 2.00002 24.7763 2.08002 25.2063 2.08002C25.2563 2.08002 25.3163 2.08002 25.3663 2.08002C25.4163 2.08002 25.3663 2.33002 25.3663 2.46002C25.3663 2.59002 25.4163 2.74002 25.4163 2.86002Z" fill="#C74528"/>
<path d="M25.418 2.86034V2.48034C25.483 2.47629 25.5482 2.48675 25.6087 2.51096C25.6693 2.53517 25.7236 2.57253 25.768 2.62034C26.258 3.05034 26.768 3.49034 27.258 3.92034C27.748 4.35034 28.208 4.69034 28.688 5.09034C29.168 5.49034 29.688 5.93034 30.138 6.33034C30.588 6.73034 31.138 7.14034 31.618 7.57034C31.948 7.87034 32.308 8.15034 32.618 8.46034C32.928 8.77034 33.558 9.25034 34.028 9.65034L35.028 10.4903L36.168 11.4903L37.168 12.3803L38.248 13.2703C38.588 13.5503 38.908 13.8403 39.248 14.1203L40.248 15.0003C40.408 15.1503 40.618 15.2603 40.658 15.5103C40.248 15.3503 39.868 15.1403 39.468 14.9503C37.968 14.2403 36.468 13.6703 34.908 13.0703C33.5847 12.575 32.2924 12.0006 31.038 11.3503C29.9273 10.7285 28.9216 9.93542 28.058 9.00034C26.8425 7.71994 26.023 6.11559 25.698 4.38034C25.598 3.88034 25.558 3.38034 25.478 2.88034C25.418 2.88034 25.418 2.86034 25.418 2.86034Z" fill="#F3F3F3"/>
<path d="M44.2891 22.1999C44.2124 20.8092 43.9844 19.4311 43.6091 18.0899C43.6038 18.0467 43.6038 18.003 43.6091 17.9599H43.3691C42.6091 17.9599 41.8691 17.8499 41.1091 17.7799C40.7491 17.7799 40.3791 17.7799 40.0191 17.7299C39.3591 17.7299 38.6991 17.6099 38.0191 17.5299C37.0892 17.4096 36.1675 17.2326 35.2591 16.9999L34.5491 16.7999C33.4976 16.4833 32.4898 16.0365 31.5491 15.4699C30.547 14.8478 29.6409 14.0831 28.8591 13.1999C28.1144 12.3301 27.4889 11.3649 26.9991 10.3299C26.969 10.1891 26.9036 10.0584 26.8091 9.94986C26.6291 9.44986 26.4291 8.94986 26.2491 8.40986C25.9118 7.29809 25.684 6.15598 25.5691 4.99986C25.4797 4.29653 25.4297 3.58876 25.4191 2.87986C25.4239 2.81995 25.4239 2.75976 25.4191 2.69986C25.3438 2.6629 25.2626 2.63922 25.1791 2.62986C24.634 2.57994 24.0865 2.55991 23.5391 2.56986H22.4391C22.0091 2.56986 21.5791 2.62986 21.1591 2.66986C20.7391 2.70986 20.1591 2.80986 19.6691 2.86986C19.1791 2.92986 18.5491 2.99986 17.9991 3.17986C17.1681 3.39742 16.3529 3.67139 15.5591 3.99986C14.5419 4.40762 13.5588 4.89583 12.6191 5.45986C11.9455 5.86392 11.2946 6.30458 10.6691 6.77986C10.1564 7.15428 9.66871 7.56181 9.20915 7.99986C8.97915 8.23986 8.68915 8.41986 8.46915 8.67986C7.94915 9.27986 7.40915 9.85986 6.91915 10.4799C6.27499 11.2865 5.69013 12.1387 5.16915 13.0299C4.75814 13.7386 4.39402 14.4735 4.07915 15.2299C3.83915 15.7999 3.59915 16.3699 3.40915 16.9699C3.07461 18.0013 2.8238 19.0581 2.65915 20.1299C2.57915 20.6999 2.52915 21.2699 2.45915 21.8499C2.40424 22.7824 2.40424 23.7173 2.45915 24.6499C2.4993 25.4595 2.59958 26.2651 2.75915 27.0599C2.91395 28.0551 3.14122 29.0377 3.43915 29.9999C3.76447 31.0117 4.17251 31.995 4.65915 32.9399C5.24925 34.09 5.94207 35.1844 6.72915 36.2099C7.12026 36.7363 7.54445 37.2373 7.99915 37.7099C8.22915 37.9299 8.42915 38.1899 8.64915 38.4099C9.80772 39.5438 11.0851 40.5496 12.4591 41.4099C12.9893 41.739 13.5367 42.0395 14.0991 42.3099C15.2612 42.8713 16.4689 43.3329 17.7091 43.6899C18.5464 43.9253 19.3983 44.1057 20.2591 44.2299C20.7391 44.3099 21.2591 44.3399 21.6991 44.3899C22.5491 44.4899 23.3891 44.3899 24.2391 44.4499C24.6781 44.4401 25.1158 44.4 25.5491 44.3299C25.8891 44.3299 26.2491 44.2299 26.5991 44.1899C27.274 44.0968 27.9421 43.9599 28.5991 43.7799C29.7636 43.4575 30.9006 43.0429 31.9991 42.5399C33.1972 41.9839 34.3391 41.3141 35.4091 40.5399C35.9607 40.18 36.4916 39.7894 36.9991 39.3699C37.4491 38.9699 37.9191 38.5999 38.3291 38.1599C38.7391 37.7199 39.2091 37.1599 39.6391 36.6899C40.1711 36.0503 40.6685 35.3826 41.1291 34.6899C41.7411 33.7371 42.2697 32.7334 42.7091 31.6899C42.9491 31.1099 43.1791 30.5599 43.3691 29.9699C43.7051 28.9395 43.9527 27.8823 44.1091 26.8099C44.1891 26.2199 44.2591 25.6399 44.3091 25.0699C44.3655 24.1138 44.3588 23.155 44.2891 22.1999ZM11.9991 40.7799C12.0013 40.7499 12.0013 40.7198 11.9991 40.6899C12.0046 40.7196 12.0046 40.7501 11.9991 40.7799Z" fill="url(#paint0_linear_41_80)"/>
<path d="M24.5664 36.5098C24.5664 36.5098 24.5664 36.5098 24.6364 36.5098C24.7064 36.5098 24.5964 36.5498 24.5664 36.5098Z" fill="#EF8C56"/>
<path d="M23.5584 11.59C24.2484 12.06 24.9784 12.47 25.6984 12.91L32.8784 17.31L33.1784 17.49C33.1784 17.65 32.9784 17.69 32.8984 17.8C32.3484 18.24 23.6384 24.73 23.4484 24.73C23.2584 24.73 23.0884 24.52 22.9184 24.4C22.1984 23.89 13.7584 17.87 13.3984 17.51C13.4584 17.41 13.5384 17.39 13.5984 17.33C15.2984 16.23 16.9484 15.07 18.5984 13.94C19.8384 13.1 21.0984 12.27 22.3284 11.45C22.5184 11.39 22.6284 11.15 22.8284 11.19C23.0031 11.2619 23.1678 11.356 23.3184 11.47C23.3891 11.5265 23.4709 11.5674 23.5584 11.59Z" fill="#FFFEFE"/>
<path d="M22.3388 32.8803C22.3388 33.7203 22.3388 34.5603 22.3388 35.4003C22.3388 35.9503 22.3388 36.4803 22.3388 37.0303C22.3388 37.1103 22.3888 37.2303 22.3388 37.2803C22.2888 37.3303 22.1588 37.2303 22.0788 37.1903C21.7788 37.0103 14.3288 31.7103 13.0788 30.8303C12.9974 30.7813 12.9315 30.7102 12.889 30.6252C12.8465 30.5402 12.8291 30.4448 12.8388 30.3503C12.8388 28.3503 12.8388 26.3503 12.8388 24.3503C12.8388 24.2303 12.8388 24.1103 12.8388 24.0103C12.8388 23.6703 12.8388 23.3503 12.8388 23.0103V19.8503C12.8141 19.745 12.8141 19.6355 12.8388 19.5303C12.9433 19.5365 13.0423 19.5789 13.1188 19.6503C14.6988 20.7203 21.5688 25.6503 22.1188 26.0103C22.2049 26.0555 22.2756 26.1252 22.3219 26.2107C22.3682 26.2962 22.388 26.3935 22.3788 26.4903C22.3788 28.4903 22.3788 30.4903 22.3788 32.5403C22.3288 32.6603 22.3388 32.7803 22.3388 32.8803Z" fill="#FFFEFE"/>
<path d="M24.9193 36.9105L24.6393 37.0405H24.5693C24.5173 36.8758 24.5002 36.7021 24.5193 36.5305C24.5193 35.3971 24.5193 34.2671 24.5193 33.1405C24.5193 33.0605 24.5193 32.9605 24.5193 32.8805C24.5242 32.7972 24.5242 32.7137 24.5193 32.6305L24.5793 26.7105C24.5749 26.6221 24.5949 26.5343 24.6373 26.4567C24.6796 26.379 24.7426 26.3146 24.8193 26.2705C25.1793 26.0105 25.5393 25.7405 25.8793 25.4605C26.4893 25.0005 27.1193 24.5605 27.7093 24.0605C27.9496 23.9086 28.1801 23.7416 28.3993 23.5605L33.4593 19.7205L33.7993 19.4805C33.7993 21.3305 33.7993 23.1405 33.8893 24.9605C33.8642 25.153 33.8642 25.3479 33.8893 25.5405C33.8893 27.2105 33.9493 28.8605 33.9493 30.5405C33.9554 30.6277 33.9359 30.7148 33.8933 30.7912C33.8507 30.8676 33.7867 30.9299 33.7093 30.9705C33.0693 31.4205 25.4493 36.6005 24.9193 36.9105Z" fill="#FFFEFE"/>
<path d="M127.92 23.2396C128.369 22.465 129.018 21.8253 129.8 21.3873C130.581 20.9493 131.465 20.729 132.36 20.7496C133.254 20.7394 134.132 20.9854 134.891 21.4586C135.649 21.9318 136.256 22.6123 136.64 23.4196L136.94 23.0096C137.656 21.9765 138.722 21.2376 139.94 20.9296C141.012 20.6473 142.141 20.6716 143.2 20.9996C143.97 21.2307 144.664 21.6645 145.21 22.2555C145.755 22.8466 146.132 23.5733 146.3 24.3596C146.469 25.0123 146.547 25.6855 146.53 26.3596V33.5296C146.545 33.6592 146.545 33.79 146.53 33.9196C146.5 34.1343 146.4 34.3333 146.247 34.4866C146.094 34.6399 145.895 34.7392 145.68 34.7696C145.451 34.8072 145.216 34.764 145.015 34.6472C144.814 34.5304 144.661 34.3474 144.58 34.1296C144.533 33.964 144.516 33.7912 144.53 33.6196V26.8296C144.543 26.1523 144.449 25.4773 144.25 24.8296C144.055 24.1845 143.659 23.6187 143.119 23.2155C142.579 22.8124 141.924 22.593 141.25 22.5896C140.708 22.5381 140.161 22.6113 139.651 22.8037C139.142 22.9961 138.683 23.3026 138.31 23.6996C137.75 24.3147 137.399 25.0922 137.31 25.9196C137.259 26.2505 137.236 26.5849 137.24 26.9196V33.5496C137.255 33.6758 137.255 33.8034 137.24 33.9296C137.224 34.1948 137.104 34.4429 136.905 34.6192C136.706 34.7954 136.445 34.8855 136.18 34.8696C135.915 34.8537 135.667 34.7331 135.491 34.5343C135.314 34.3355 135.224 34.0748 135.24 33.8096C135.24 33.6896 135.24 33.5696 135.24 33.4696V26.4696C135.259 25.7267 135.101 24.99 134.78 24.3196C134.543 23.8038 134.168 23.3632 133.697 23.0457C133.226 22.7283 132.677 22.5463 132.11 22.5196C131.169 22.445 130.235 22.7279 129.494 23.3117C128.752 23.8956 128.258 24.7376 128.11 25.6696C128.022 26.0838 127.978 26.5062 127.98 26.9296V33.5196C127.995 33.6559 127.995 33.7934 127.98 33.9296C127.938 34.1449 127.822 34.3387 127.652 34.4775C127.483 34.6163 127.269 34.6913 127.05 34.6896C126.823 34.6968 126.6 34.6264 126.419 34.4901C126.237 34.3538 126.107 34.1596 126.05 33.9396C126.035 33.8167 126.035 33.6925 126.05 33.5696V21.9996C126.045 21.7866 126.097 21.576 126.2 21.3896C126.302 21.1903 126.468 21.0311 126.672 20.9373C126.875 20.8436 127.104 20.8209 127.322 20.8727C127.54 20.9246 127.734 21.0481 127.873 21.2234C128.012 21.3987 128.089 21.6157 128.09 21.8396C128.09 22.0696 128.09 22.2996 128.09 22.5096V23.1796C128.09 23.1796 127.91 23.2196 127.92 23.2396Z" fill="#151515"/>
<path d="M92.7515 32.1896V37.8496C92.7617 37.966 92.7617 38.0832 92.7515 38.1996C92.7051 38.447 92.5671 38.6679 92.3651 38.818C92.163 38.9681 91.9118 39.0366 91.6615 39.0096C91.422 38.9909 91.1972 38.8867 91.0283 38.7159C90.8594 38.5451 90.7576 38.3193 90.7415 38.0796V22.1296C90.7216 21.9836 90.7216 21.8356 90.7415 21.6896C90.7693 21.4244 90.9014 21.1811 91.1086 21.0132C91.3158 20.8454 91.5813 20.7668 91.8465 20.7946C92.1117 20.8224 92.355 20.9545 92.5228 21.1617C92.6907 21.369 92.7693 21.6344 92.7415 21.8996C92.7415 22.4196 92.7415 22.8996 92.7415 23.4796C92.7103 23.5566 92.7103 23.6426 92.7415 23.7196L92.9615 23.4096C93.6521 22.4122 94.618 21.6374 95.7415 21.1796C96.7985 20.7657 97.9501 20.6551 99.0666 20.86C100.183 21.0649 101.22 21.5773 102.061 22.3396C103.194 23.2894 103.958 24.6055 104.221 26.0596C104.604 27.6913 104.464 29.4017 103.821 30.9496C103.426 32.0053 102.753 32.9344 101.873 33.6385C100.992 34.3427 99.9381 34.7957 98.8215 34.9496C97.7589 35.1453 96.6629 35.0445 95.6538 34.6582C94.6448 34.2718 93.7617 33.6149 93.1015 32.7596C92.9515 32.5896 92.8215 32.4196 92.6915 32.2396C92.7715 32.1796 92.7615 32.1796 92.7515 32.1896ZM102.381 27.8296C102.378 27.1145 102.256 26.405 102.021 25.7296C101.702 24.7887 101.09 23.9746 100.275 23.4061C99.4601 22.8377 98.4848 22.5445 97.4915 22.5696C96.6531 22.5923 95.8351 22.8329 95.1179 23.2678C94.4008 23.7026 93.8092 24.3167 93.4015 25.0496C92.7269 26.1866 92.4954 27.5325 92.7515 28.8296C92.9255 30.0466 93.5418 31.1568 94.4825 31.9482C95.4233 32.7395 96.6227 33.1566 97.8515 33.1196C98.5465 33.1015 99.2276 32.9212 99.8405 32.593C100.453 32.2649 100.981 31.798 101.381 31.2296C102.077 30.2357 102.428 29.0417 102.381 27.8296Z" fill="#151515"/>
<path d="M59.0018 34.9195C57.5288 34.9033 56.0775 34.5618 54.7518 33.9195C53.9286 33.5202 53.1564 33.0233 52.4518 32.4395C52.2341 32.3012 52.0784 32.0841 52.017 31.8335C51.9556 31.583 51.9934 31.3185 52.1225 31.0952C52.2516 30.8719 52.462 30.7071 52.7097 30.6352C52.9574 30.5634 53.2233 30.59 53.4518 30.7095C53.5986 30.7725 53.7312 30.8643 53.8418 30.9795C54.7451 31.7634 55.8004 32.3523 56.9418 32.7095C58.1973 33.1 59.529 33.1789 60.8218 32.9395C61.579 32.7928 62.2753 32.4238 62.8218 31.8795C63.209 31.4666 63.4688 30.9506 63.5699 30.3936C63.671 29.8366 63.6092 29.2623 63.3918 28.7395C63.1789 28.2766 62.8301 27.8895 62.3918 27.6295C61.8514 27.3075 61.2738 27.0523 60.6718 26.8695C59.8318 26.6095 58.9618 26.4495 58.1018 26.2295C57.1732 26.0233 56.2684 25.7217 55.4018 25.3295C55.1092 25.1965 54.8283 25.0393 54.5618 24.8595C53.9523 24.4961 53.4476 23.9806 53.097 23.3636C52.7465 22.7466 52.562 22.0492 52.5618 21.3395C52.495 20.3516 52.7386 19.3675 53.2586 18.5248C53.7785 17.6821 54.5488 17.0229 55.4618 16.6395C56.3149 16.2316 57.2463 16.0133 58.1918 15.9995C60.4517 15.8145 62.7035 16.4421 64.5418 17.7695C64.6541 17.8431 64.7508 17.938 64.8264 18.0489C64.902 18.1598 64.955 18.2846 64.9824 18.4159C65.0098 18.5473 65.011 18.6828 64.986 18.8147C64.9611 18.9466 64.9103 19.0723 64.8368 19.1845C64.7633 19.2968 64.6683 19.3935 64.5574 19.4691C64.4465 19.5447 64.3218 19.5977 64.1904 19.6251C64.059 19.6525 63.9235 19.6537 63.7916 19.6288C63.6598 19.6038 63.5341 19.5531 63.4218 19.4795C62.9765 19.1317 62.5013 18.8238 62.0018 18.5595C60.6921 17.9244 59.2247 17.688 57.7818 17.8795C57.0533 17.9532 56.3601 18.2304 55.7818 18.6795C55.3028 19.046 54.956 19.5583 54.7937 20.1391C54.6313 20.72 54.6622 21.3378 54.8818 21.8995C55.0531 22.3798 55.3852 22.7861 55.8218 23.0495C56.3923 23.4217 57.0161 23.7049 57.6718 23.8895C58.5818 24.1795 59.5218 24.3595 60.4518 24.5995C61.2734 24.7895 62.074 25.0609 62.8418 25.4095C63.139 25.5499 63.4264 25.7102 63.7018 25.8895C64.2687 26.2144 64.7474 26.6732 65.0961 27.2258C65.4447 27.7784 65.6527 28.408 65.7018 29.0595C65.8 29.7811 65.7341 30.5156 65.509 31.2081C65.2839 31.9007 64.9055 32.5336 64.4018 33.0595C63.7752 33.71 62.9943 34.1916 62.1318 34.4595C61.1295 34.8197 60.0654 34.9761 59.0018 34.9195Z" fill="#151515"/>
<path d="M71.0031 23.2899C71.0731 23.1799 71.1531 23.0899 71.2131 22.9799C71.7068 22.2538 72.3794 21.6671 73.1658 21.2765C73.9523 20.8859 74.8261 20.7045 75.7031 20.7499C76.4537 20.743 77.1982 20.8858 77.8931 21.1699C78.5958 21.4655 79.215 21.9292 79.6963 22.5204C80.1776 23.1115 80.5062 23.8119 80.6531 24.5599C80.7783 25.1008 80.8387 25.6547 80.8331 26.2099V33.6299C80.8529 33.7759 80.8529 33.9239 80.8331 34.0699C80.8079 34.3351 80.6784 34.5795 80.473 34.7492C80.2677 34.9189 80.0033 35.0001 79.7381 34.9749C79.4729 34.9497 79.2285 34.8202 79.0588 34.6149C78.8891 34.4095 78.8079 34.1451 78.8331 33.8799C78.8331 33.7799 78.8331 33.6699 78.8331 33.5599V26.7299C78.8438 26.164 78.7628 25.6 78.5931 25.0599C78.4152 24.4121 78.0426 23.8344 77.5257 23.4052C77.0088 22.976 76.3726 22.7158 75.7031 22.6599C74.8354 22.5251 73.9473 22.665 73.1631 23.0599C72.5676 23.3641 72.0579 23.8128 71.6806 24.3648C71.3032 24.9168 71.0703 25.5546 71.0031 26.2199C70.9832 26.5263 70.9832 26.8336 71.0031 27.1399V33.8299C71.0031 34.0951 70.8977 34.3495 70.7102 34.537C70.5227 34.7246 70.2683 34.8299 70.0031 34.8299C69.7393 34.8492 69.4787 34.7633 69.2781 34.5908C69.0776 34.4184 68.9535 34.1736 68.9331 33.9099C68.9331 33.7999 68.9331 33.6899 68.9331 33.5899V16.5899C68.9233 16.4534 68.9233 16.3164 68.9331 16.1799C68.9714 15.9433 69.0935 15.7283 69.277 15.5741C69.4606 15.42 69.6934 15.3368 69.9331 15.3399C70.185 15.3391 70.4279 15.4334 70.6133 15.604C70.7987 15.7746 70.9129 16.0088 70.9331 16.2599C70.9428 16.3764 70.9428 16.4935 70.9331 16.6099V23.2999L71.0031 23.2899Z" fill="#151515"/>
<path d="M156.343 28.6195H151.613C151.323 28.6195 151.323 28.6195 151.363 28.8995C151.484 29.8665 151.872 30.7808 152.483 31.5395C152.958 32.1126 153.564 32.5622 154.25 32.8496C154.936 33.1369 155.682 33.2536 156.423 33.1895C157.681 33.1383 158.882 32.6543 159.823 31.8195C159.909 31.7376 159.999 31.6608 160.093 31.5895C160.27 31.464 160.487 31.4083 160.703 31.4331C160.918 31.4579 161.117 31.5615 161.261 31.7239C161.405 31.8864 161.484 32.0962 161.482 32.3132C161.481 32.5302 161.399 32.739 161.253 32.8995C160.323 33.8523 159.134 34.5127 157.833 34.7995C156.371 35.1526 154.836 35.0371 153.443 34.4695C152.41 34.0566 151.5 33.3857 150.799 32.5209C150.099 31.656 149.632 30.6261 149.443 29.5295C149.007 27.6553 149.3 25.6855 150.263 24.0195C150.693 23.2233 151.292 22.5307 152.017 21.99C152.743 21.4494 153.577 21.0738 154.463 20.8895C155.928 20.5338 157.473 20.7349 158.797 21.4536C160.122 22.1724 161.133 23.3577 161.633 24.7795C161.947 25.6225 162.122 26.5106 162.153 27.4095C162.178 27.5694 162.167 27.7329 162.119 27.8875C162.071 28.0422 161.988 28.1838 161.877 28.3016C161.766 28.4194 161.63 28.5101 161.478 28.567C161.327 28.6238 161.164 28.6452 161.003 28.6295C159.413 28.6095 157.873 28.6195 156.343 28.6195ZM155.683 27.0995H159.933C160.063 27.0995 160.093 27.0495 160.073 26.9295C159.978 25.9926 159.67 25.0897 159.173 24.2895C158.57 23.3892 157.637 22.7632 156.575 22.5479C155.513 22.3325 154.409 22.5451 153.503 23.1395C152.59 23.7815 151.917 24.7109 151.593 25.7795C151.482 26.1467 151.395 26.5208 151.333 26.8995C151.333 27.0495 151.333 27.1295 151.523 27.0995C151.586 27.0945 151.65 27.0945 151.713 27.0995H155.683Z" fill="#151515"/>
<path d="M111.593 26.0595V33.5795C111.603 33.7485 111.583 33.9179 111.533 34.0795C111.465 34.3162 111.312 34.5196 111.104 34.6506C110.895 34.7816 110.646 34.8311 110.403 34.7895C110.165 34.7712 109.942 34.6683 109.773 34.4996C109.604 34.3309 109.501 34.1074 109.483 33.8695C109.483 33.7395 109.483 33.6195 109.483 33.4795V18.4795C109.483 18.1795 109.483 18.1795 109.173 18.1795H104.283C104.113 18.1916 103.943 18.1678 103.783 18.1095C103.587 18.0298 103.422 17.89 103.31 17.7104C103.199 17.5307 103.147 17.3204 103.163 17.1095C103.195 16.8981 103.293 16.7025 103.445 16.5513C103.596 16.4001 103.791 16.3014 104.003 16.2695H116.943C117.199 16.2824 117.441 16.3934 117.618 16.5795C117.795 16.7657 117.893 17.0128 117.893 17.2695C117.878 17.5242 117.766 17.7634 117.58 17.9382C117.394 18.1129 117.148 18.21 116.893 18.2095C115.673 18.2095 114.443 18.2095 113.223 18.2095H111.873C111.563 18.2095 111.553 18.1395 111.553 18.5395V22.1195C111.593 23.3995 111.593 24.7295 111.593 26.0595Z" fill="#151515"/>
<path d="M84.5 27.8591C84.5 25.8591 84.5 23.9391 84.5 21.9791C84.5059 21.7553 84.5813 21.5388 84.7156 21.3596C84.85 21.1804 85.0367 21.0475 85.25 20.9791C85.5019 20.9041 85.7733 20.9312 86.0054 21.0548C86.2375 21.1783 86.4116 21.3882 86.49 21.6391C86.5269 21.7964 86.5437 21.9577 86.54 22.1191V33.6291C86.5543 33.7587 86.5543 33.8895 86.54 34.0191C86.5161 34.2844 86.3879 34.5292 86.1835 34.6999C85.979 34.8705 85.7152 34.953 85.45 34.9291C85.1848 34.9053 84.9399 34.777 84.7693 34.5726C84.5986 34.3682 84.5161 34.1044 84.54 33.8391C84.54 33.1091 84.54 32.3791 84.54 31.6391L84.5 27.8591Z" fill="#151515"/>
<path d="M121.912 27.8691V33.6591C121.932 33.785 121.932 33.9132 121.912 34.0391C121.853 34.2736 121.711 34.4787 121.513 34.6166C121.314 34.7545 121.072 34.8158 120.832 34.7891C120.591 34.7728 120.364 34.6695 120.193 34.4985C120.022 34.3275 119.918 34.1004 119.902 33.8591C119.892 33.7728 119.892 33.6855 119.902 33.5991V21.8491C119.91 21.7177 119.943 21.5891 120.001 21.4707C120.058 21.3523 120.138 21.2464 120.237 21.159C120.335 21.0717 120.45 21.0047 120.575 20.9618C120.699 20.9189 120.831 20.901 120.962 20.9091C121.227 20.9091 121.482 21.0145 121.669 21.202C121.857 21.3896 121.962 21.6439 121.962 21.9091V27.8491L121.912 27.8691Z" fill="#151515"/>
<path d="M126.402 44.1797C126.543 43.925 126.751 43.7137 127.004 43.5685C127.256 43.4234 127.544 43.35 127.835 43.3561C128.126 43.3623 128.41 43.4479 128.656 43.6036C128.902 43.7593 129.101 43.9792 129.232 44.2397L129.422 43.9997C129.662 43.6698 130.02 43.4444 130.422 43.3697C130.768 43.2927 131.131 43.3447 131.442 43.5158C131.753 43.687 131.991 43.9657 132.112 44.2997C132.219 44.5561 132.274 44.8316 132.272 45.1097V47.8597C132.272 48.0197 132.272 48.0997 132.062 48.0697C131.852 48.0397 131.622 48.1697 131.472 48.0697C131.322 47.9697 131.472 47.7197 131.472 47.5497C131.472 46.8197 131.472 46.0797 131.472 45.3497C131.473 45.1274 131.432 44.907 131.352 44.6997C131.304 44.562 131.224 44.4378 131.118 44.3376C131.012 44.2374 130.883 44.1641 130.743 44.1239C130.603 44.0837 130.455 44.0778 130.312 44.1066C130.169 44.1355 130.035 44.1983 129.922 44.2897C129.765 44.4038 129.638 44.5545 129.553 44.7288C129.467 44.9031 129.426 45.0957 129.432 45.2897V47.7797C129.432 48.1097 129.432 48.0897 129.112 48.0897C128.602 48.0897 128.602 48.0897 128.602 47.5897V45.3897C128.612 45.1562 128.582 44.9227 128.512 44.6997C128.471 44.5545 128.394 44.422 128.288 44.3143C128.183 44.2065 128.051 44.1271 127.907 44.0833C127.763 44.0395 127.61 44.0327 127.462 44.0635C127.314 44.0943 127.177 44.1618 127.062 44.2597C126.901 44.3723 126.77 44.522 126.679 44.696C126.589 44.8701 126.542 45.0635 126.542 45.2597V47.5297C126.542 47.6997 126.622 47.9697 126.482 48.0497C126.342 48.1297 126.032 48.0497 125.792 48.0497C125.781 48.0514 125.77 48.0505 125.759 48.0471C125.749 48.0437 125.739 48.0378 125.731 48.03C125.724 48.0222 125.718 48.0127 125.714 48.0022C125.711 47.9917 125.71 47.9806 125.712 47.9697V47.7797C125.712 46.3997 125.712 45.0097 125.712 43.6297C125.712 43.4797 125.712 43.4297 125.902 43.4097C126.442 43.4097 126.442 43.4097 126.472 43.9297C126.462 44.0162 126.438 44.1006 126.402 44.1797Z" fill="#151515"/>
<path d="M112.833 47.5699V49.8299C112.833 49.9399 112.773 49.9799 112.673 49.9799H112.603C112.413 49.9799 112.173 50.0599 112.043 49.9799C111.913 49.8999 111.993 49.6199 111.993 49.4299C111.993 47.8199 111.993 46.1899 111.993 44.5799C111.993 44.2899 111.993 43.9799 111.993 43.6899C111.993 43.5599 111.993 43.4899 112.163 43.4999C112.3 43.5099 112.437 43.5099 112.573 43.4999C112.723 43.4999 112.753 43.5699 112.763 43.6899C112.738 43.859 112.738 44.0309 112.763 44.1999C112.873 44.1999 112.903 44.0899 112.953 44.0199C113.148 43.8061 113.388 43.6389 113.656 43.5308C113.924 43.4228 114.213 43.3766 114.501 43.3959C114.79 43.4151 115.07 43.4992 115.321 43.6419C115.573 43.7846 115.789 43.9822 115.953 44.2199C116.248 44.6708 116.398 45.2012 116.383 45.7399C116.392 46.2548 116.272 46.7638 116.033 47.2199C115.823 47.6157 115.486 47.9294 115.076 48.1108C114.666 48.2921 114.207 48.3305 113.773 48.2199C113.405 48.0948 113.08 47.8697 112.833 47.5699ZM115.523 45.7799C115.541 45.3949 115.447 45.0129 115.253 44.6799C115.155 44.4963 115.012 44.341 114.837 44.2288C114.662 44.1167 114.461 44.0517 114.253 44.0399C114.072 44.0249 113.89 44.0468 113.718 44.1043C113.546 44.1617 113.387 44.2536 113.252 44.3742C113.116 44.4948 113.006 44.6417 112.929 44.806C112.852 44.9703 112.809 45.1486 112.803 45.3299C112.778 45.6261 112.778 45.9238 112.803 46.2199C112.811 46.5155 112.919 46.7996 113.11 47.026C113.3 47.2524 113.561 47.4078 113.851 47.4669C114.14 47.526 114.442 47.4853 114.705 47.3515C114.969 47.2177 115.18 46.9987 115.303 46.7299C115.446 46.4336 115.521 46.109 115.523 45.7799Z" fill="#151515"/>
<path d="M104.331 44.0793C104.4 44.0617 104.461 44.019 104.501 43.9593C104.714 43.7012 104.998 43.5122 105.319 43.416C105.639 43.3199 105.981 43.321 106.301 43.4193C106.607 43.5181 106.877 43.7078 107.073 43.9632C107.27 44.2185 107.384 44.5276 107.401 44.8493C107.416 45.039 107.416 45.2296 107.401 45.4193V47.8193C107.401 48.0693 107.401 48.0893 107.161 48.0693C106.921 48.0493 106.711 48.1693 106.581 48.0693C106.451 47.9693 106.581 47.6993 106.581 47.5093V45.5093C106.582 45.294 106.558 45.0793 106.511 44.8693C106.481 44.7092 106.413 44.5586 106.313 44.4307C106.212 44.3029 106.082 44.2015 105.933 44.1355C105.784 44.0695 105.621 44.0408 105.459 44.0519C105.296 44.063 105.139 44.1136 105.001 44.1993C104.807 44.301 104.646 44.4555 104.536 44.6448C104.427 44.8341 104.373 45.0506 104.381 45.2693V47.8993C104.381 48.0193 104.381 48.0693 104.221 48.0693C104.061 48.0693 103.751 48.1493 103.591 48.0693C103.431 47.9893 103.541 47.6993 103.541 47.4993V41.5193C103.541 41.2793 103.541 41.2793 103.791 41.2793H104.181C104.351 41.2793 104.391 41.3393 104.391 41.4993C104.331 42.3593 104.331 43.2093 104.331 44.0793Z" fill="#151515"/>
<path d="M98.1731 47.0698C98.5529 47.2906 98.9759 47.427 99.4131 47.4698C99.6989 47.5083 99.9896 47.4809 100.263 47.3898C100.451 47.3423 100.62 47.2414 100.752 47.0995C100.883 46.9575 100.97 46.7804 101.003 46.5898C101.054 46.3849 101.039 46.1691 100.96 45.9733C100.881 45.7775 100.742 45.6118 100.563 45.4998C100.294 45.323 100.006 45.1786 99.7031 45.0698C99.2985 44.9392 98.9243 44.7284 98.6031 44.4498C98.4334 44.2907 98.2999 44.0968 98.2118 43.8815C98.1237 43.6662 98.083 43.4344 98.0925 43.2019C98.102 42.9694 98.1614 42.7417 98.2668 42.5343C98.3722 42.3269 98.521 42.1446 98.7031 41.9998C98.9938 41.7761 99.3391 41.6345 99.7031 41.5898C100.277 41.494 100.865 41.5457 101.413 41.7398C101.663 41.8298 101.673 41.8298 101.593 42.0698C101.513 42.3098 101.593 42.4298 101.423 42.4998C101.253 42.5698 101.163 42.4198 101.023 42.3798C100.646 42.2566 100.246 42.2224 99.8531 42.2798C99.6076 42.3167 99.3846 42.4436 99.2275 42.6358C99.0704 42.8281 98.9904 43.0719 99.0031 43.3198C99.0153 43.453 99.0576 43.5816 99.1269 43.696C99.1962 43.8103 99.2907 43.9074 99.4031 43.9798C99.6453 44.1506 99.9072 44.2916 100.183 44.3998C100.495 44.5132 100.796 44.6538 101.083 44.8198C101.372 44.9922 101.606 45.2433 101.757 45.5438C101.909 45.8443 101.971 46.1818 101.938 46.5165C101.904 46.8513 101.776 47.1696 101.568 47.4341C101.36 47.6985 101.081 47.8982 100.763 48.0098C99.9248 48.2909 99.0115 48.2481 98.2031 47.8898C98.0631 47.8298 97.9831 47.7498 98.0531 47.5898C98.1231 47.4298 98.1031 47.2698 98.1731 47.0698Z" fill="#151515"/>
<path d="M120.372 47.0695C120.754 47.2859 121.176 47.4221 121.612 47.4695C121.898 47.508 122.189 47.4807 122.462 47.3895C122.648 47.3403 122.815 47.2387 122.945 47.0969C123.074 46.955 123.16 46.7789 123.192 46.5895C123.243 46.3846 123.228 46.1688 123.149 45.973C123.07 45.7772 122.931 45.6115 122.752 45.4995C122.487 45.3228 122.202 45.1785 121.902 45.0695C121.494 44.9392 121.117 44.7283 120.792 44.4495C120.623 44.2897 120.49 44.0953 120.403 43.8795C120.316 43.6638 120.276 43.4318 120.286 43.1993C120.297 42.9668 120.357 42.7393 120.463 42.5323C120.57 42.3252 120.719 42.1435 120.902 41.9995C121.192 41.7737 121.538 41.6318 121.902 41.5895C122.476 41.4942 123.064 41.5458 123.612 41.7395C123.862 41.8295 123.872 41.8295 123.792 42.0695C123.712 42.3095 123.792 42.4295 123.622 42.4995C123.452 42.5695 123.352 42.4195 123.212 42.3795C122.832 42.2569 122.428 42.2227 122.032 42.2795C121.783 42.3167 121.557 42.4465 121.399 42.643C121.242 42.8395 121.164 43.0882 121.182 43.3395C121.196 43.4721 121.24 43.6 121.309 43.714C121.378 43.8281 121.471 43.9255 121.582 43.9995C121.827 44.1724 122.092 44.3136 122.372 44.4195C122.68 44.5349 122.977 44.6754 123.262 44.8395C123.556 45.0043 123.794 45.2533 123.946 45.5544C124.097 45.8556 124.155 46.1952 124.112 46.5295C124.079 46.8669 123.946 47.1867 123.731 47.4485C123.515 47.7102 123.227 47.902 122.902 47.9995C122.064 48.2806 121.151 48.2378 120.342 47.8795C120.212 47.8195 120.132 47.7395 120.192 47.5795C120.241 47.4627 120.281 47.3423 120.312 47.2195C120.326 47.1673 120.346 47.1169 120.372 47.0695Z" fill="#151515"/>
<path d="M157.934 48.7393V42.5693C157.994 42.5693 158.024 42.5693 158.054 42.5693C159.054 43.5693 159.974 44.4893 160.934 45.4293C161.094 45.5893 161.094 45.6093 160.934 45.7493C159.984 46.7493 159.044 47.6593 158.084 48.6093C158.054 48.6993 158.004 48.7493 157.934 48.7393Z" fill="#151515"/>
<path d="M137.481 48.0895H137.251C137.093 48.1245 136.929 48.1245 136.771 48.0895C136.601 48.0195 136.721 47.7995 136.651 47.6595V47.6095C136.541 47.6095 136.501 47.7195 136.441 47.7795C136.244 47.9535 136.011 48.0815 135.758 48.1541C135.506 48.2268 135.24 48.2423 134.981 48.1995C134.728 48.179 134.487 48.0818 134.291 47.9211C134.094 47.7603 133.951 47.5435 133.881 47.2995C133.794 47.0474 133.781 46.7753 133.845 46.5162C133.909 46.2571 134.046 46.022 134.241 45.8395C134.612 45.5015 135.082 45.2913 135.581 45.2395C135.846 45.1968 136.113 45.1734 136.381 45.1695C136.611 45.1695 136.611 45.1695 136.601 44.9295C136.601 44.6908 136.506 44.4619 136.338 44.2931C136.169 44.1243 135.94 44.0295 135.701 44.0295C135.31 44.0028 134.918 44.075 134.561 44.2395C134.491 44.2395 134.441 44.3295 134.361 44.3195C134.151 43.8095 134.171 43.7895 134.681 43.5995C135.094 43.4531 135.534 43.3952 135.971 43.4295C136.361 43.4366 136.733 43.5912 137.014 43.8621C137.294 44.1331 137.461 44.5002 137.481 44.8895C137.486 44.9661 137.486 45.0429 137.481 45.1195C137.429 46.1088 137.429 47.1002 137.481 48.0895ZM136.571 46.2095C136.571 46.1095 136.571 46.0195 136.571 45.9095C136.571 45.7995 136.571 45.6995 136.371 45.7095C136.033 45.7155 135.696 45.7659 135.371 45.8595C135.165 45.9201 134.976 46.0299 134.821 46.1795C134.721 46.298 134.653 46.4406 134.625 46.5932C134.597 46.7459 134.61 46.9031 134.661 47.0495C134.697 47.1791 134.772 47.2945 134.876 47.3803C134.98 47.4661 135.107 47.5182 135.241 47.5295C135.394 47.5564 135.551 47.5515 135.702 47.515C135.853 47.4784 135.995 47.4112 136.119 47.3173C136.243 47.2235 136.346 47.105 136.422 46.9695C136.498 46.834 136.546 46.6842 136.561 46.5295C136.572 46.4232 136.575 46.3163 136.571 46.2095Z" fill="#151515"/>
<path d="M150.002 47.33C150.028 47.4693 150.065 47.6063 150.112 47.74C150.112 47.87 150.112 47.93 149.972 47.97C149.26 48.2339 148.483 48.2655 147.752 48.06C147.426 47.9695 147.13 47.7926 146.896 47.548C146.662 47.3033 146.498 46.9999 146.422 46.67C146.216 45.9791 146.266 45.2372 146.562 44.58C146.773 44.1081 147.152 43.7308 147.624 43.5205C148.096 43.3101 148.63 43.2815 149.122 43.44C149.346 43.5099 149.552 43.6287 149.725 43.7877C149.898 43.9468 150.034 44.1422 150.122 44.36C150.314 44.7652 150.4 45.2124 150.372 45.66C150.372 45.9 150.372 45.9 150.112 45.9H147.462C147.042 45.9 147.042 45.9 147.112 46.3C147.159 46.6141 147.311 46.903 147.543 47.1192C147.776 47.3355 148.075 47.4662 148.392 47.49C148.84 47.5384 149.294 47.4907 149.722 47.35C149.812 47.3177 149.909 47.3108 150.002 47.33ZM148.352 45.33H149.402C149.492 45.33 149.562 45.33 149.572 45.2C149.587 44.9108 149.492 44.6266 149.307 44.4041C149.122 44.1817 148.859 44.0373 148.572 44C148.4 43.9791 148.225 43.9926 148.058 44.0398C147.891 44.087 147.735 44.1669 147.599 44.2748C147.464 44.3827 147.351 44.5165 147.267 44.6685C147.183 44.8204 147.131 44.9875 147.112 45.16C147.112 45.29 147.112 45.33 147.252 45.33C147.682 45.3 148.002 45.31 148.392 45.31L148.352 45.33Z" fill="#151515"/>
<path d="M145.224 47.4599C145.294 48.1799 145.334 48.0599 144.694 48.1499C144.548 48.1801 144.399 48.1801 144.254 48.1499C144.025 48.1216 143.813 48.0193 143.648 47.8585C143.484 47.6977 143.377 47.4874 143.343 47.2599C143.319 47.0606 143.319 46.8591 143.343 46.6599V44.3999C143.343 44.1199 143.344 44.1199 143.074 44.0999C142.614 44.0999 142.613 44.0999 142.623 43.6399C142.623 43.4999 142.624 43.4499 142.814 43.4499H143.194C143.304 43.4499 143.343 43.3999 143.343 43.2899C143.343 43.1799 143.343 42.7799 143.343 42.5199C143.343 42.2599 143.344 42.2999 143.534 42.2799C143.745 42.2102 143.963 42.16 144.183 42.1299V43.1299C144.183 43.4099 144.184 43.4099 144.464 43.4099H145.233C145.353 43.4099 145.404 43.4099 145.394 43.5799C145.394 44.1199 145.444 44.0199 144.964 44.0299H144.354C144.224 44.0299 144.164 44.0299 144.164 44.2199V46.6699C144.224 47.2799 144.464 47.4699 145.074 47.3899C145.084 47.4599 145.154 47.4299 145.224 47.4599Z" fill="#151515"/>
<path d="M139.191 43.4894C139.399 43.4193 139.624 43.4193 139.831 43.4894C140.071 43.5894 139.901 43.8694 139.951 44.0494C139.962 44.1391 139.962 44.2297 139.951 44.3194C140.047 44.2296 140.122 44.1205 140.171 43.9994C140.285 43.8031 140.448 43.6405 140.645 43.528C140.842 43.4156 141.065 43.3574 141.291 43.3594C141.511 43.3594 141.531 43.3594 141.531 43.5894V43.9994C141.531 44.1094 141.531 44.1694 141.371 44.1694C141.2 44.158 141.029 44.1828 140.868 44.2422C140.707 44.3016 140.56 44.3942 140.438 44.514C140.315 44.6339 140.219 44.7782 140.156 44.9377C140.093 45.0971 140.064 45.2681 140.071 45.4394C140.071 45.6794 140.071 45.9294 140.071 46.1694V47.8594C140.071 48.0194 140.071 48.0994 139.861 48.0894C139.708 48.0794 139.555 48.0794 139.401 48.0894C139.261 48.0894 139.231 48.0394 139.231 47.8994V46.3394C139.231 45.4494 139.231 44.5594 139.231 43.6594C139.224 43.6015 139.211 43.5445 139.191 43.4894Z" fill="#151515"/>
<path d="M152.73 44.2598C152.8 44.1398 152.87 44.0198 152.94 43.9198C153.065 43.7438 153.23 43.5997 153.421 43.4989C153.612 43.3982 153.824 43.3437 154.04 43.3398C154.2 43.3398 154.26 43.4098 154.26 43.5698C154.26 43.7298 154.26 43.8598 154.26 44.0198C154.26 44.1798 154.26 44.1698 154.12 44.1698C153.947 44.1546 153.772 44.1774 153.609 44.2369C153.445 44.2963 153.297 44.3908 153.174 44.5138C153.051 44.6368 152.956 44.7852 152.897 44.9487C152.838 45.1121 152.815 45.2866 152.83 45.4598C152.83 46.1898 152.83 46.9298 152.83 47.6698V47.9298C152.83 48.0298 152.83 48.0898 152.69 48.0898H152.11C152.084 48.0903 152.059 48.0815 152.039 48.065C152.018 48.0485 152.005 48.0254 152 47.9998V47.8098C152 46.4498 152 45.0798 152 43.7198C152 43.4898 152 43.4898 152.23 43.4898C152.75 43.4898 152.75 43.4898 152.76 43.9698V44.2898L152.73 44.2598Z" fill="#151515"/>
<path d="M84.3137 16.9994C84.3137 16.3294 84.5337 15.9994 85.0537 15.7894C85.2294 15.7288 85.4153 15.7038 85.6008 15.7158C85.7862 15.7278 85.9674 15.7766 86.1337 15.8594C86.2843 15.9289 86.4152 16.0347 86.5147 16.1674C86.6142 16.3001 86.6792 16.4554 86.7037 16.6194C86.7186 16.7557 86.7186 16.8931 86.7037 17.0294C86.7244 17.2539 86.6737 17.4792 86.5588 17.6731C86.4438 17.8671 86.2706 18.0198 86.0637 18.1094C85.8351 18.2181 85.5805 18.2598 85.3291 18.2297C85.0778 18.1996 84.8402 18.099 84.6437 17.9394C84.5114 17.8252 84.4112 17.6784 84.3533 17.5134C84.2954 17.3485 84.2818 17.1713 84.3137 16.9994Z" fill="#151515"/>
<path d="M110.121 45.78V47.86C110.121 48.09 110.121 48.09 109.901 48.09H109.421C109.311 48.09 109.261 48.09 109.271 47.94V43.61C109.271 43.52 109.271 43.48 109.401 43.48H110.001C110.017 43.4784 110.033 43.4805 110.048 43.486C110.064 43.4915 110.078 43.5002 110.089 43.5117C110.101 43.5232 110.109 43.537 110.115 43.5523C110.12 43.5676 110.122 43.5839 110.121 43.6V43.82C110.121 44.46 110.121 45.11 110.121 45.78Z" fill="#151515"/>
<path d="M120.312 18.6495V15.2695C120.993 15.8595 121.652 16.4195 122.312 16.9595C121.701 17.5856 121.032 18.1515 120.312 18.6495Z" fill="#151515"/>
<path d="M109.671 42.6791C109.53 42.6791 109.395 42.6233 109.296 42.5239C109.196 42.4245 109.141 42.2897 109.141 42.1491C109.141 42.0085 109.196 41.8737 109.296 41.7743C109.395 41.6749 109.53 41.6191 109.671 41.6191C109.743 41.6147 109.815 41.6257 109.882 41.6513C109.95 41.6769 110.011 41.7165 110.062 41.7675C110.113 41.8186 110.153 41.8799 110.178 41.9474C110.204 42.0149 110.215 42.087 110.211 42.1591C110.214 42.2299 110.202 42.3006 110.175 42.3664C110.149 42.4323 110.109 42.4917 110.058 42.5409C110.007 42.5901 109.946 42.6278 109.879 42.6517C109.812 42.6755 109.741 42.6848 109.671 42.6791Z" fill="#151515"/>
</g>
<defs>
<linearGradient id="paint0_linear_41_80" x1="23.3591" y1="2.51986" x2="23.3591" y2="44.3999" gradientUnits="userSpaceOnUse">
<stop stop-color="#ED5B26"/>
<stop offset="1" stop-color="#CA4627"/>
</linearGradient>
<clipPath id="clip0_41_80">
<rect width="162.14" height="50" fill="white"/>
</clipPath>
</defs>
</svg>
